<svg width="436" height="560" viewBox="0 0 436 560" fill="none" xmlns="http://www.w3.org/2000/svg">
<mask id="path-1-inside-1_204_2296" fill="white">
<path fill-rule="evenodd" clip-rule="evenodd" d="M436 0H0V560H436V0ZM218.5 309C265.72 309 304 232.598 304 185.421C304 138.244 265.72 100 218.5 100C171.28 100 133 138.244 133 185.421C133 232.598 171.28 309 218.5 309Z"/>
</mask>
<path fill-rule="evenodd" clip-rule="evenodd" d="M436 0H0V560H436V0ZM218.5 309C265.72 309 304 232.598 304 185.421C304 138.244 265.72 100 218.5 100C171.28 100 133 138.244 133 185.421C133 232.598 171.28 309 218.5 309Z" fill="#F3F3F3" fill-opacity="0.5"/>
<path d="M0 0V-3H-3V0H0ZM436 0H439V-3H436V0ZM0 560H-3V563H0V560ZM436 560V563H439V560H436ZM0 3H436V-3H0V3ZM3 560V0H-3V560H3ZM436 557H0V563H436V557ZM433 0V560H439V0H433ZM301 185.421C301 208.346 291.647 238.701 276.407 263.323C261.074 288.094 240.481 306 218.5 306V312C243.739 312 265.896 291.705 281.509 266.481C297.213 241.108 307 209.673 307 185.421H301ZM218.5 103C264.066 103 301 139.904 301 185.421H307C307 136.585 267.375 97 218.5 97V103ZM136 185.421C136 139.904 172.934 103 218.5 103V97C169.625 97 130 136.585 130 185.421H136ZM218.5 306C196.519 306 175.926 288.094 160.593 263.323C145.353 238.701 136 208.346 136 185.421H130C130 209.673 139.787 241.108 155.491 266.481C171.104 291.705 193.261 312 218.5 312V306Z" fill="white" mask="url(#path-1-inside-1_204_2296)"/>
<line x1="219" y1="311" x2="219" y2="557" stroke="white" stroke-width="2" stroke-dasharray="6 6"/>
<line x1="219" y1="-4.37114e-08" x2="219" y2="97" stroke="white" stroke-width="2" stroke-dasharray="6 6"/>
<line x1="433" y1="191" x2="305" y2="191" stroke="white" stroke-width="2" stroke-dasharray="6 6"/>
<line x1="132" y1="191" x2="2" y2="191" stroke="white" stroke-width="2" stroke-dasharray="6 6"/>
</svg>
